<?xml version="1.0" standalone="no"?><!DOCTYPE svg PUBLIC "-//W3C//DTD SVG 1.1//EN" "http://www.w3.org/Graphics/SVG/1.1/DTD/svg11.dtd"><svg t="1763029655835" class="icon" viewBox="0 0 1024 1024" version="1.1" xmlns="http://www.w3.org/2000/svg" p-id="1616" xmlns:xlink="http://www.w3.org/1999/xlink" width="200" height="200"><path d="M742.150505 0H281.839495c-45.209117 0-80.198434 0-108.217886 2.269956-28.329447 2.299955-51.149001 6.999863-71.6886 17.38966C67.633679 36.999277 39.044238 65.00873 20.864593 100.418039 9.704811 122.147614 4.724908 146.297143 2.334954 175.306576 0.005 203.606023 0.005 238.725337 0.005 283.15447v457.681061c0 44.419132 0 79.548446 2.329954 107.847893 2.389953 29.009433 7.369856 53.148962 18.529639 74.898537 18.179645 35.399309 46.769087 63.418761 81.068416 80.758423 20.539599 10.389797 43.359153 15.089705 71.6886 17.38966 28.009453 2.269956 62.99877 2.269956 108.217886 2.269956h460.30101c45.219117 0 80.198434 0 108.217887-2.269956 28.329447-2.299955 51.149001-6.999863 71.688599-17.38966 34.29933-17.339661 62.888772-45.349114 81.068417-80.758423 11.169782-21.739575 16.149685-45.879104 18.529638-74.898537 2.329954-28.299447 2.329954-63.418761 2.329955-107.837894V283.14447c0-44.419132 0-79.548446-2.329955-107.837894-2.389953-29.009433-7.369856-53.148962-18.529638-74.898537-18.179645-35.399309-46.769087-63.418761-81.068417-80.758423-20.529599-10.379797-43.349153-15.079705-71.6786-17.37966C822.348939 0 787.359622 0 742.150505 0zM117.942697 64.538739c14.509717-7.329857 32.149372-11.489776 58.458858-13.619734 26.459483-2.139958 60.058827-2.149958 106.217925-2.149958h458.74104c46.159098 0 79.758442 0.01 106.217926 2.149958 26.309486 2.129958 43.959141 6.289877 58.458858 13.619734 27.359466 13.82973 48.899045 35.549306 62.128787 61.308803 6.689869 13.029746 10.639792 29.029433 12.719751 54.218941 2.109959 25.639499 2.129958 58.37886 2.129959 104.377961v455.101112c0 45.999102-0.02 78.738462-2.129959 104.377961-2.079959 25.189508-6.029882 41.189196-12.719751 54.218941-13.229742 25.769497-34.769321 47.479073-62.128787 61.308803-14.509717 7.329857-32.149372 11.489776-58.458858 13.619734-26.459483 2.139958-60.058827 2.149958-106.217926 2.149958H282.61948c-46.159098 0-79.758442-0.01-106.217925-2.149958-26.309486-2.129958-43.959141-6.289877-58.458858-13.619734-27.359466-13.82973-48.899045-35.549306-62.128787-61.308803-6.689869-13.019746-10.639792-29.029433-12.719752-54.218941-2.109959-25.639499-2.129958-58.37886-2.129958-104.377961V284.444444c0-45.999102 0.02-78.738462 2.129958-104.377961 2.079959-25.189508 6.029882-41.189196 12.719752-54.218941 13.229742-25.769497 34.769321-47.479073 62.128787-61.308803zM256 213.325833c0 23.55954-19.099627 42.669167-42.669167 42.669167s-42.669167-19.099627-42.669166-42.669167 19.099627-42.669167 42.669166-42.669166S256 189.766294 256 213.325833zM511.995 255.995c23.55954 0 42.669167-19.099627 42.669167-42.669167s-19.099627-42.669167-42.669167-42.669166c-23.55954 0-42.669167 19.099627-42.669166 42.669166S488.43546 255.995 511.995 255.995z m0 298.664167c23.55954 0 42.669167-19.099627 42.669167-42.669167 0-23.55954-19.099627-42.669167-42.669167-42.669166-23.55954 0-42.669167 19.099627-42.669166 42.669166 0 23.55954 19.109627 42.669167 42.669166 42.669167z m42.669167 255.995c0 23.55954-19.099627 42.669167-42.669167 42.669167-23.55954 0-42.669167-19.099627-42.669166-42.669167 0-23.55954 19.099627-42.669167 42.669166-42.669167 23.55954 0 42.669167 19.099627 42.669167 42.669167z m255.995-554.659167c23.55954 0 42.669167-19.099627 42.669167-42.669167s-19.099627-42.669167-42.669167-42.669166c-23.55954 0-42.669167 19.099627-42.669167 42.669166S787.089627 255.995 810.659167 255.995z m42.659167 255.995c0 23.55954-19.099627 42.669167-42.669167 42.669167-23.55954 0-42.669167-19.099627-42.669167-42.669167 0-23.55954 19.099627-42.669167 42.669167-42.669166s42.669167 19.109627 42.669167 42.669166z m-42.659167 341.323334c23.55954 0 42.669167-19.099627 42.669167-42.669167 0-23.55954-19.099627-42.669167-42.669167-42.669167C787.089627 767.985 767.99 787.084627 767.99 810.654167c0 23.55954 19.099627 42.659167 42.669167 42.659167zM213.330833 554.659167c23.55954 0 42.669167-19.099627 42.669167-42.669167 0-23.55954-19.099627-42.669167-42.669167-42.669166s-42.669167 19.099627-42.669166 42.669166c0.01 23.55954 19.109627 42.669167 42.669166 42.669167z m42.669167 255.995c0 23.55954-19.099627 42.669167-42.669167 42.669167s-42.669167-19.099627-42.669166-42.669167c0-23.55954 19.099627-42.669167 42.669166-42.669167S256 787.084627 256 810.654167z" p-id="1617" fill="#e6e6e6"></path></svg>