<?xml version="1.0" standalone="no"?><!DOCTYPE svg PUBLIC "-//W3C//DTD SVG 1.1//EN" "http://www.w3.org/Graphics/SVG/1.1/DTD/svg11.dtd"><svg t="1762785035312" class="icon" viewBox="0 0 1024 1024" version="1.1" xmlns="http://www.w3.org/2000/svg" p-id="8860" xmlns:xlink="http://www.w3.org/1999/xlink" width="200" height="200"><path d="M513.664 343.84c-112.928 0-204.8 91.872-204.8 204.8s91.872 204.8 204.8 204.8 204.8-91.872 204.8-204.8-91.872-204.8-204.8-204.8z m0 368.64c-90.336 0-163.84-73.504-163.84-163.84s73.504-163.84 163.84-163.84 163.84 73.504 163.84 163.84-73.504 163.84-163.84 163.84zM229.152 336.768H154.208a29.952 29.952 0 1 0 0 59.904h74.944a29.952 29.952 0 1 0 0-59.904z m675.232-72.8h-193.216l-30.016-116.672a41.024 41.024 0 0 0-39.936-31.776h-255.136c-18.88 0-35.232 12.768-39.712 30.88L316.16 263.968H122.944c-44.288 0-80.32 34.272-80.32 76.384v469.824c0 42.112 36.032 76.384 80.32 76.384h781.44c44.288 0 80.32-34.272 80.32-76.384V340.352c0-42.112-36.032-76.384-80.32-76.384z m39.36 546.208c0 19.52-17.664 35.424-39.36 35.424H122.944c-21.696 0-39.36-15.904-39.36-35.424V340.352c0-19.52 17.664-35.424 39.36-35.424h209.12a20.48 20.48 0 0 0 19.808-15.232l0.032-0.128 34.208-133.056 255.072-0.288 0.224 0.928 34.048 132.448a20.544 20.544 0 0 0 19.84 15.392h209.12c21.696 0 39.36 15.872 39.36 35.424V810.24z" p-id="8861" fill="currentColor"></path></svg>